<svg width="100" height="109" viewBox="0 0 100 109" fill="none" xmlns="http://www.w3.org/2000/svg">
    <path d="M51.0959 108.575C77.7822 108.575 110.297 76.2558 96.8723 42.9616C88.0539 21.0908 71.9497 47.1132 44.1014 45.0723C44.1014 45.0723 3.10185 38.4611 0.513396 55.2304C-4.34473 86.7036 26.2501 108.575 51.0959 108.575Z" fill="#A7CFCB"/>
    <mask id="mask0_5704_39900" style="mask-type:alpha" maskUnits="userSpaceOnUse" x="1" y="0" width="98" height="109">
        <path d="M98.4318 41.6831C98.4318 77.7817 71.7161 113.644 43.4712 108.049C13.5869 102.13 9.89804 83.4658 6.84626 82.1094C6.03941 81.7508 4.94452 77.8435 3.89341 74.206L1.52539 67.8678C1.52539 64.8161 3.81436 63.9557 2.15939 62.2729C6.84626 54.6435 3.58724 54.6435 6.84626 39.8933L8.87943 28.0206C13.4621 5.85634 19.5657 1.74475 19.5657 1.74475C91.7909 -6.39446 98.4318 15.1293 98.4318 41.6831Z" fill="#1A847C"/>
    </mask>
    <g mask="url(#mask0_5704_39900)">
        <path fill-rule="evenodd" clip-rule="evenodd" d="M36.6242 48.392C28.0755 50.0023 22.3414 53.1292 20.0266 61.2837C17.5806 69.9016 19.8966 80.2099 22.4331 87.5827C26.6597 99.8724 39.6757 118.482 55.4149 109.52C70.8802 100.715 85.2061 58.9028 62.7364 49.9278C56.2294 47.3279 44.0421 46.9946 36.6242 48.392Z" fill="white"/>
        <path d="M48.5443 87.4953H44.8172C42.8629 87.4953 41.2784 85.9094 41.2784 83.9547V79.1075H36.4674C34.512 79.1075 32.9287 77.5222 32.9287 75.5687V71.7921C32.9287 69.8385 34.512 68.2549 36.4674 68.2549H41.2784V63.4065C41.2784 61.4506 42.8629 59.8672 44.8172 59.8672H48.5443C50.4978 59.8672 52.084 61.4506 52.084 63.4065V68.2549H56.8928C58.847 68.2549 60.4334 69.8385 60.4334 71.7921V75.5687C60.4334 77.5222 58.847 79.1075 56.8928 79.1075H52.084V83.9547C52.084 85.9094 50.4978 87.4953 48.5443 87.4953Z" fill="#1A837C"/>
        <path fill-rule="evenodd" clip-rule="evenodd" d="M37.0735 2.08789H55.7691C67.2119 2.08789 76.5743 11.4499 76.5743 22.8927C76.5743 34.3354 67.2119 43.6978 55.7691 43.6978H37.0735C25.6314 43.6978 16.2686 34.3354 16.2686 22.8927C16.2686 11.4499 25.6314 2.08789 37.0735 2.08789Z" fill="white"/>
        <path fill-rule="evenodd" clip-rule="evenodd" d="M55.7697 10.209H37.0731C30.5575 10.209 25.2266 15.54 25.2266 22.0559V23.7285C25.2266 30.244 30.5575 35.5751 37.0731 35.5751H49.7639L55.494 40.7441V35.5751H55.7697C62.2853 35.5751 67.6156 30.244 67.6156 23.7285V22.0559C67.6156 15.54 62.2853 10.209 55.7697 10.209Z" fill="#232828"/>
        <path fill-rule="evenodd" clip-rule="evenodd" d="M54.8461 17.7578C56.3369 17.7578 57.5434 18.9647 57.5434 20.4535C57.5434 21.9429 56.3369 23.1494 54.8461 23.1494C53.3573 23.1494 52.1494 21.9429 52.1494 20.4535C52.1494 18.9647 53.3573 17.7578 54.8461 17.7578Z" fill="white"/>
        <path fill-rule="evenodd" clip-rule="evenodd" d="M37.9966 17.7578C39.4867 17.7578 40.6936 18.9647 40.6936 20.4535C40.6936 21.9429 39.4867 23.1494 37.9966 23.1494C36.5073 23.1494 35.2998 21.9429 35.2998 20.4535C35.2998 18.9647 36.5073 17.7578 37.9966 17.7578Z" fill="white"/>
        <path d="M50.2125 26.5851C49.2668 27.6457 47.5262 28.2976 45.6438 28.2976C43.7423 28.2976 41.988 27.6323 41.0488 26.5566" stroke="white" stroke-width="1.0834" stroke-miterlimit="22.9256"/>
        <path fill-rule="evenodd" clip-rule="evenodd" d="M20.9601 55.5781C11.0548 59.1779 4.67787 72.4806 9.59448 80.9592C13.1084 87.0197 14.4971 94.991 17.3752 88.0465C18.5644 85.1759 18.1888 85.1143 17.8578 82.0194L16.1862 66.3894C15.7226 62.0587 17.7321 58.3044 20.9601 55.5781Z" fill="white"/>
        <path fill-rule="evenodd" clip-rule="evenodd" d="M10.7607 71.8132C10.6902 73.5164 11.059 75.42 11.4722 76.8114L17.2236 88.724C17.2148 88.7829 16.4128 90.7382 15.0943 90.6826C13.5787 90.6198 11.4904 84.6594 10.6906 83.183C8.74655 79.5942 7.6878 77.9748 7.88591 73.2292C8.10078 68.0654 11.1157 62.7282 14.5324 59.6158C15.4808 58.7525 17.2824 57.0607 18.5559 56.7773C17.3865 58.3753 15.8881 58.7205 13.4296 62.9589C12.2672 64.9636 10.8907 68.696 10.7607 71.8132Z" fill="#F4F9F9"/>
        <path fill-rule="evenodd" clip-rule="evenodd" d="M71.5934 55.8361C81.8291 58.347 94.5226 50.8302 95.1459 41.0491C95.5919 34.0578 98.8666 26.6587 92.6149 30.8332C90.0312 32.5591 90.3093 32.819 88.8648 35.5762L81.5698 49.5C79.5489 53.3582 75.792 55.363 71.5934 55.8361Z" fill="white"/>
        <path fill-rule="evenodd" clip-rule="evenodd" d="M89.0923 48.0037C90.0973 46.6268 90.8484 44.8391 91.278 43.4527L93.1154 30.3526C93.1555 30.3086 94.9087 29.1286 95.974 29.9073C97.1992 30.8018 95.6236 36.9176 95.4682 38.5896C95.0904 42.6536 95.0709 44.5882 92.2692 48.4238C89.2214 52.5976 83.7491 55.3598 79.179 56.0491C77.9108 56.2399 75.4729 56.6454 74.2566 56.1734C76.1167 55.4946 77.5544 56.0401 81.9535 53.8823C84.0339 52.8615 87.2521 50.5231 89.0923 48.0037Z" fill="#F4F9F9"/>
        <path fill-rule="evenodd" clip-rule="evenodd" d="M32.874 104.79C34.4772 107.185 38.8123 109.816 41.5051 110.892C42.9808 111.482 44.4769 111.805 45.9645 111.903H47.9192C53.4014 111.546 58.5863 108.263 61.9779 103.923C66.5496 98.072 70.0454 91.9409 72.1363 84.6178C73.7942 78.811 75.1323 71.4631 74.0994 65.3429C73.0883 59.3468 70.9076 54.8086 65.894 51.4512L68.0982 55.5967C70.3757 60.456 70.2768 66.8008 69.7046 72.0262C68.9278 79.11 66.1956 85.9027 63.5257 91.2475C62.8518 92.5968 61.9966 93.9844 61.1723 95.2434C58.619 99.1426 56.0636 102.51 52.0298 105.151C47.6485 108.021 42.0745 109.021 37.1141 106.901C35.9099 106.385 33.8234 105.044 32.874 104.79Z" fill="#F4F9F9"/>
        <path fill-rule="evenodd" clip-rule="evenodd" d="M32.6184 104.535V104.281L32.3223 104.493L32.6184 104.535Z" fill="#F4F9F9"/>
        <path fill-rule="evenodd" clip-rule="evenodd" d="M32.8734 104.789L32.6191 104.535L32.8734 104.789Z" fill="#F4F9F9"/>
    </g>
</svg>
